HIERARCHY
ROOT Hips
{
  OFFSET 0 0 0
  CHANNELS 6 Xposition Yposition Zposition Zrotation Yrotation Xrotation
  JOINT LeftThigh
  {
    OFFSET 8.409438 0 -5.917753
    CHANNELS 3 Zrotation Yrotation Xrotation
    JOINT LeftLeg
    {
      OFFSET 0 0 -42.358652
      CHANNELS 3 Zrotation Yrotation Xrotation
      JOINT LeftFoot
      {
        OFFSET 0 0 -39.357303
        CHANNELS 3 Zrotation Yrotation Xrotation
      }
    }
  }
  JOINT RightThigh
  {
    OFFSET -8.409438 0 -5.917753
    CHANNELS 3 Zrotation Yrotation Xrotation
    JOINT RightLeg
    {
      OFFSET 0 0 -42.358652
      CHANNELS 3 Zrotation Yrotation Xrotation
      JOINT RightFoot
      {
        OFFSET 0 0 -39.357303
        CHANNELS 3 Zrotation Yrotation Xrotation
      }
    }
  }
  JOINT SpineLow
  {
    OFFSET 0 0 4.719101
    CHANNELS 3 Zrotation Yrotation Xrotation
    JOINT SpineMid
    {
      OFFSET 0 0 12.899191
      CHANNELS 3 Zrotation Yrotation Xrotation
      JOINT Chest
      {
        OFFSET 0 0 12.899191
        CHANNELS 3 Zrotation Yrotation Xrotation
        JOINT LeftShoulder
        {
          OFFSET 7.550562 1.41573 9.438202
          CHANNELS 3 Zrotation Yrotation Xrotation
          JOINT LeftArm
          {
            OFFSET 9.155056 0 4.247191
            CHANNELS 3 Zrotation Yrotation Xrotation
            JOINT LeftForearm
            {
              OFFSET 0 0 25.771955
              CHANNELS 3 Zrotation Yrotation Xrotation
              JOINT LeftHand
              {
                OFFSET 0 0 25.197169
                CHANNELS 3 Zrotation Yrotation Xrotation
              }
            }
          }
        }
        JOINT RightShoulder
        {
          OFFSET -7.550562 1.41573 9.438202
          CHANNELS 3 Zrotation Yrotation Xrotation
          JOINT RightArm
          {
            OFFSET -9.155056 0 4.247191
            CHANNELS 3 Zrotation Yrotation Xrotation
            JOINT RightForearm
            {
              OFFSET 0 0 -25.771955
              CHANNELS 3 Zrotation Yrotation Xrotation
              JOINT RightHand
              {
                OFFSET 0 0 -25.197169
                CHANNELS 3 Zrotation Yrotation Xrotation
              }
            }
          }
        }
        JOINT Neck
        {
          OFFSET 0 0 15.101124
          CHANNELS 3 Zrotation Yrotation Xrotation
          JOINT Head
          {
            OFFSET 0 0 11.325843
            CHANNELS 3 Zrotation Yrotation Xrotation
            End Site
            {
              OFFSET 0 0 14.157303
            }
          }
        }
      }
    }
  }
}
MOTION
Frames: 14
Frame Time: 0.0
0.0  101.685394  0.0  1.545383  2.274825  -119.711092  -13.976883  -55.465918  -57.807227  40.31816  -7.856037  11.652893  -20.45989  -16.111878  1.537296  -19.293883  1.811671  -6.086151  12.536379  3.067587  39.000914  17.597398  3.247679  9.495907  -3.033569  1.488135  5.47582  -7.91912  4.721267  14.776598  -7.91912  4.721266  14.776597  -3.519159  23.934255  3.922547  -148.560695  64.364929  -110.622732  -40.295235  -39.228259  62.196501  59.1735  -31.334382  2.729684  20.779324  -3.385763  24.871487  124.621462  38.391037  60.88282  -15.361518  18.805145  -101.822034  88.388628  -9.092502  -21.068627  3.156247  3.349081  -1.324486  2.373789  2.505066  -1.010427  
0.0  101.685394  0.0  2.242319  2.734205  -121.07221  -7.038933  -51.740058  -64.570135  37.533049  -8.008004  20.534235  -22.396513  -16.633232  0.391054  -19.564552  3.968064  -5.507843  12.551793  2.180316  39.875836  17.749052  2.814756  9.482829  -3.071472  1.731431  5.635334  -7.956642  5.408313  15.185801  -7.956642  5.408313  15.185801  -3.445689  23.146135  3.785449  -149.566378  63.378763  -111.86203  -41.144577  -39.250061  63.860418  58.471523  -30.931442  3.457726  20.359259  -3.555493  24.405663  123.396079  37.991396  59.693447  -15.522478  19.411045  -101.788344  88.244402  -9.083705  -20.353458  3.216836  2.813071  -1.751396  2.420233  2.100677  -1.328144  
0.0  101.685394  0.0  2.813685  3.756287  -121.224682  1.282849  -43.884816  -71.748346  28.879904  -6.695926  28.749987  -21.856784  -16.180632  -0.880089  -20.427452  5.726625  -6.106099  13.512405  0.205203  40.701065  16.273474  3.058342  9.516825  -3.209478  1.930456  5.560772  -8.296754  5.970484  14.949584  -8.296754  5.970484  14.949584  -3.259739  22.929207  4.203339  -149.339698  63.01771  -111.540081  -41.586866  -39.567653  64.876549  58.040416  -30.838133  3.810865  20.212076  -3.641749  24.150836  121.537909  37.716654  58.228035  -17.175581  19.493067  -101.13343  88.126877  -7.824419  -21.39406  3.528812  2.252198  -1.872135  2.653199  1.678425  -1.416986  
0.0  101.685394  0.0  2.43709  4.872465  -121.089747  7.96363  -35.708855  -76.497604  18.649885  -2.062525  35.395273  -19.065825  -15.928517  -1.167436  -21.614465  6.027654  -6.699578  14.734983  -2.013694  41.426929  14.038522  3.948717  9.681709  -3.39355  1.963109  5.38653  -8.808852  6.077725  14.451532  -8.808852  6.077724  14.451532  -3.213176  23.405611  5.264211  -148.003408  63.150264  -109.930277  -41.42348  -40.508095  65.058374  57.936991  -31.011338  3.630813  20.258385  -3.721319  24.486962  119.319115  37.588021  56.761547  -16.76953  19.428608  -101.491933  87.448864  -7.907664  -20.857209  3.542098  1.910494  -1.751588  2.661831  1.42279  -1.324699  
0.0  101.685394  0.0  1.590386  5.893572  -121.137563  12.727392  -28.200317  -79.458519  7.831183  4.594588  40.566832  -13.702969  -15.556492  -0.650456  -22.723777  5.397704  -6.653192  15.123025  -2.809532  41.844193  12.895304  4.948078  9.78418  -3.604634  1.891105  5.226777  -9.414472  5.905745  14.002182  -9.414472  5.905745  14.002182  -3.156083  24.557775  6.155258  -146.513316  63.808195  -108.106553  -40.782855  -41.898357  64.531343  58.080202  -31.207896  3.05646  20.470603  -3.538358  25.172465  117.070556  37.585711  55.364669  -16.114851  18.798167  -101.927905  87.033439  -7.933115  -20.480908  3.631404  1.83835  -1.419203  2.727607  1.370397  -1.075282  
0.0  101.685394  0.0  0.472589  6.820628  -121.296459  16.119658  -21.2494  -81.635212  -0.627362  11.057804  45.286492  -9.521185  -15.801443  -0.012068  -23.944577  4.127244  -6.15797  15.416384  -2.024188  41.946536  12.568487  5.393052  9.719124  -3.870896  1.746311  5.060065  -10.184131  5.543332  13.539664  -10.184132  5.543332  13.539665  -2.656428  26.145394  6.800377  -145.577683  64.834356  -106.858138  -40.102448  -43.310014  63.664517  58.229431  -31.227158  2.54565  21.016992  -3.060545  26.297925  114.858607  37.810477  54.017646  -15.342273  18.023468  -102.317114  86.863607  -7.864737  -20.354663  4.036477  2.12908  -0.898854  3.030149  1.59096  -0.688167  
0.0  101.685394  0.0  -0.460225  7.400252  -121.462937  17.550929  -15.446035  -80.896479  -6.69438  14.526215  48.891478  -6.964928  -15.887493  0.054463  -24.854212  2.805912  -5.497625  15.582624  -0.335654  41.953609  12.980759  5.437073  9.452313  -4.135804  1.583361  4.962236  -10.945571  5.138686  13.271673  -10.94557  5.138686  13.271672  -1.659091  27.833229  6.888413  -145.857981  65.926548  -106.600981  -39.917794  -44.561713  63.011921  58.153103  -31.012949  2.480251  21.94059  -2.274318  27.177787  112.64632  38.218765  52.738814  -14.660054  17.460949  -102.590446  86.734719  -7.683896  -20.313877  4.641561  2.575179  -0.660544  3.483374  1.926503  -0.514931  
0.0  101.685394  0.0  -1.082556  7.471605  -121.306829  18.855038  -13.145257  -80.169217  -7.00917  15.168352  53.764935  -7.839623  -15.935526  -0.708151  -24.968742  1.46942  -5.190389  15.353605  1.424938  42.051451  13.754041  5.429565  9.114169  -4.329986  1.450339  4.84332  -11.509183  4.795892  12.950982  -11.509183  4.795892  12.950982  -0.287926  29.277379  7.159138  -146.671941  66.677061  -106.782756  -40.42963  -45.521427  62.928183  57.775279  -30.564076  3.001533  23.049145  -1.676446  27.977384  110.549559  38.717043  51.604412  -14.385594  17.151837  -102.722261  86.572972  -7.434248  -20.135704  5.367166  2.966724  -0.536602  4.027085  2.220537  -0.428476  
0.0  101.685394  0.0  -1.288835  6.99087  -121.282494  19.62171  -13.332143  -80.369179  -4.660628  14.626189  60.203722  -8.502111  -15.679769  -1.769113  -24.016274  0.425512  -4.910029  14.869112  2.788752  42.154078  14.268604  5.434404  8.848175  -4.318127  1.372325  4.832071  -11.491799  4.580077  12.933423  -11.491799  4.580077  12.933424  0.420508  30.119809  7.181266  -147.427266  66.810669  -106.925901  -41.031586  -44.11503  65.529724  59.867619  -28.383522  1.614056  23.502876  -1.330368  28.303044  108.69841  39.258656  50.605063  -14.592406  17.105627  -102.721393  86.210934  -7.194758  -19.777177  5.776157  3.215783  -0.645805  4.334386  2.405994  -0.514704  
0.0  101.685394  0.0  -1.040704  6.108246  -121.598638  20.228621  -14.319057  -81.076312  -1.742612  14.233  67.044895  -7.822865  -15.34144  -2.406332  -22.256907  -0.11441  -4.372531  14.193239  3.837911  42.21636  14.668633  5.332689  8.591617  -4.047356  1.37306  5.046878  -10.737026  4.564092  13.54048  -10.737025  4.564092  13.54048  -0.474094  30.123874  6.117173  -147.823085  66.293254  -106.918342  -41.891773  -43.964064  66.235698  59.075785  -27.637927  2.760564  22.857833  -1.124126  27.518384  107.054083  39.842746  49.537442  -15.064728  17.225115  -102.564602  85.614319  -6.932662  -19.197889  5.562972  3.187518  -1.280625  4.177858  2.379231  -0.98936  
0.0  101.685394  0.0  -0.432974  5.484334  -121.9952  20.929553  -16.557643  -82.005175  2.466668  14.217399  73.795193  -6.56721  -14.751989  -2.775973  -20.533769  -0.010146  -3.820591  13.474795  4.626198  42.143368  14.923433  5.166291  8.330715  -3.627739  1.543108  5.380441  -9.533375  4.987715  14.462213  -9.533376  4.987715  14.462213  -2.41493  28.844954  4.441664  -148.292008  65.302932  -107.245663  -42.66457  -43.372129  67.190295  58.971837  -26.572199  3.53897  21.419318  -1.667413  25.731312  105.409375  40.307418  48.255071  -15.497503  17.31246  -102.373823  84.859479  -6.732802  -18.404637  4.834481  2.553322  -2.190932  3.634473  1.897834  -1.663261  
0.0  101.685394  0.0  0.461298  5.384473  -122.096225  20.699059  -19.892592  -82.579596  8.124129  13.706727  80.196994  -5.074256  -14.044893  -3.14243  -19.195145  0.682029  -3.60236  12.852495  5.010486  41.876388  15.069418  4.931094  8.186639  -3.153262  1.800852  5.613143  -8.166365  5.612517  15.111  -8.166365  5.612517  15.111001  -4.59618  26.990305  3.367107  -149.160229  64.095072  -108.110367  -43.458222  -42.591985  68.298822  58.34752  -25.795706  4.406695  19.347032  -2.742034  24.053318  103.680379  40.605556  46.753545  -15.758735  17.211773  -102.279031  84.093239  -6.592164  -17.481469  3.726599  1.604411  -2.816416  2.802232  1.186218  -2.122053  
0.0  101.685394  0.0  1.298645  5.725356  -121.963294  19.220453  -23.667693  -82.644648  14.360269  12.285578  86.182209  -3.647273  -13.303093  -3.538023  -18.379274  1.621827  -3.506672  12.44638  4.90089  41.371789  14.894784  4.78094  8.175507  -2.77552  2.041382  5.702129  -7.076365  6.189168  15.368962  -7.076365  6.189168  15.368962  -6.170096  25.324465  3.090312  -150.631194  62.960919  -109.588533  -44.37003  -41.896923  69.402562  57.886796  -25.062905  5.121797  17.339093  -3.780842  23.011626  101.90517  40.777665  45.089131  -15.852686  16.918753  -102.359324  83.337534  -6.463198  -16.560158  2.712526  0.742738  -3.03066  2.038109  0.543631  -2.276313  
0.0  101.685394  0.0  1.720336  6.383239  -121.61655  17.499462  -26.671869  -82.221033  19.389134  10.957574  91.306957  -2.390783  -12.450478  -3.895212  -18.220367  2.468243  -3.49378  12.22635  4.297577  40.653627  14.453148  4.715005  8.265237  -2.534495  2.193856  5.624474  -6.394087  6.540694  15.169463  -6.394087  6.540695  15.169464  -6.919826  24.125246  3.666864  -152.756947  62.010445  -111.663857  -45.383184  -41.482294  70.401669  57.556603  -24.394642  5.669593  15.751252  -4.618306  22.874568  99.95423  40.914318  43.29128  -15.83975  16.486842  -102.62453  82.546251  -6.267545  -15.628904  1.931578  0.105156  -2.78711  1.449198  0.070061  -2.090688  
